<svg width="1024" height="1024" viewBox="0 0 1024 1024" fill="none"
	xmlns="http://www.w3.org/2000/svg">
	<style>
		.stroke {
		stroke-width: 42.2753px;
		stroke: #000;
		}
		@media (prefers-color-scheme: dark) {
		.stroke {
		stroke: #fff;
		}
		}
	</style>
	<g>
		<circle cx="513" cy="512" r="490.863" class="stroke" />
		<path
			d="M242.908 206.679V612.991C242.908 683.45 211.436 709.284 170.1 709.284C128.765 709.284 120.779 688.147 94.9443 603.596"
			class="stroke" />
		<path
			d="M475.421 240.648C475.421 313.926 435.947 385.174 389.827 385.174C343.708 385.174 325.109 328.141 325.109 254.864C325.109 181.586 333.46 145.875 400.265 122.183C467.071 98.4905 475.421 167.371 475.421 240.648Z"
			class="stroke" />
		<path d="M475.421 382.826V234.862" class="stroke" />
		<path
			d="M723.463 507.303C723.463 298.235 739.461 152.12 637.476 128.753C535.492 105.385 551.489 298.235 551.489 507.303C551.489 716.371 551.489 909.221 637.476 885.853C723.463 862.486 723.463 716.371 723.463 507.303Z"
			class="stroke" />
		<path
			d="M481.556 541.221C477.01 489.839 466.899 453.189 398.562 461.511C330.225 469.832 325.109 552.112 325.109 665.49C325.109 778.869 325.109 866.091 413.219 897.617C463.238 915.514 484.862 874.822 494.21 815.552"
			class="stroke" />
		<path
			d="M806.579 483.816C809.862 454.299 828.652 432.742 878.007 437.522C927.361 442.302 931.056 489.57 931.056 554.702C931.056 619.834 878.007 726.657 844.157 735.12C794.835 747.45 806.579 692.844 806.579 655.266"
			class="stroke" />
		<path d="M806.579 232.514V786.79" class="stroke" />
	</g>
</svg>
