<svg width="875" height="823" viewBox="0 0 875 823" fill="none" xmlns="http://www.w3.org/2000/svg">
<path fill-rule="evenodd" clip-rule="evenodd" d="M875 0H0V823H875V0ZM664.348 264.619C678.091 278.2 700.373 278.2 714.116 264.619C727.859 251.037 727.859 229.018 714.116 215.436C700.373 201.855 678.091 201.855 664.348 215.436C650.604 229.018 650.604 251.037 664.348 264.619ZM258.14 396.525L316.206 320.014C324.952 308.49 341.495 306.155 353.157 314.798C364.818 323.441 367.181 339.79 358.435 351.314L291.132 439.997L358.435 528.679C367.181 540.203 364.818 556.552 353.157 565.195C341.495 573.838 324.952 571.503 316.206 559.979L258.14 483.468L200.074 559.979C191.328 571.503 174.785 573.838 163.123 565.195C151.462 556.552 149.099 540.203 157.845 528.679L225.148 439.997L157.845 351.314C149.099 339.79 151.462 323.441 163.123 314.798C174.785 306.155 191.328 308.49 200.074 320.014L258.14 396.525ZM662.841 544.331V335.666C662.841 321.261 674.658 309.583 689.235 309.583C703.811 309.583 715.628 321.261 715.628 335.666V544.331C715.628 558.736 703.811 570.414 689.235 570.414C674.658 570.414 662.841 558.736 662.841 544.331ZM398.905 448.693V335.666C398.905 321.261 410.722 309.583 425.299 309.583C439.875 309.583 451.692 321.261 451.692 335.666V448.693C451.692 498.69 467.344 522.595 504.479 522.595C541.615 522.595 557.266 498.69 557.266 448.693V335.666C557.266 321.261 569.083 309.583 583.66 309.583C598.236 309.583 610.053 321.261 610.053 335.666V448.693C610.053 523.973 576.799 574.761 504.479 574.761C432.159 574.761 398.905 523.973 398.905 448.693Z" fill="#0078C8"/>
</svg>
