<svg width="24" height="24" viewBox="0 0 24 24" xmlns="http://www.w3.org/2000/svg">
<path d="M4.121 22.122a3.1 3.1 0 0 0 2.207-.915l8.381-8.381a6.022 6.022 0 0 0 2.164.128 6.08 6.08 0 0 0 4.982-4.217 5.8 5.8 0 0 0 .2-2.6 1.973 1.973 0 0 0-1.344-1.577 2 2 0 0 0-2.05.486L16.411 7.3a.346.346 0 0 1-.579 0l-.006-.006a.411.411 0 0 1 0-.58l2.25-2.25a2 2 0 0 0 .486-2.049 1.974 1.974 0 0 0-1.582-1.35 5.8 5.8 0 0 0-2.6.2 6.08 6.08 0 0 0-4.213 4.985 6.075 6.075 0 0 0 .127 2.163l-8.381 8.38a3.122 3.122 0 0 0 2.208 5.329zM12.1 6.492a4.111 4.111 0 0 1 2.87-3.314A3.874 3.874 0 0 1 16.108 3c.185 0 .37.014.553.044L14.411 5.3a2.422 2.422 0 0 0 .007 3.414c.954.91 2.454.91 3.408 0l2.253-2.267a3.815 3.815 0 0 1-.135 1.708 4.051 4.051 0 0 1-3.313 2.818 4 4 0 0 1-3.337-1.14A4.1 4.1 0 0 1 12.1 6.492zM3.328 18.207l7.838-7.838a5.749 5.749 0 0 0 1.581 1.59l-7.833 7.834a1.147 1.147 0 0 1-1.585 0 1.123 1.123 0 0 1-.001-1.586z"/>
</svg>
