<svg width="72" height="72" viewBox="0 0 72 72" fill="none" xmlns="http://www.w3.org/2000/svg">
<path fill-rule="evenodd" clip-rule="evenodd" d="M35.999 0C16.1149 0 0 16.1186 0 36C0 55.8797 16.1149 72 35.999 72C55.8771 72 72 55.8797 72 36C72 16.1186 55.8771 0 35.999 0Z" fill="#13B5EA"/>
<path fill-rule="evenodd" clip-rule="evenodd" d="M26.3891 34.4907C27.0353 31.9334 29.3126 30.1485 31.9292 30.1485C34.5593 30.1485 36.8258 31.9289 37.4749 34.4907H26.3891ZM39.4875 36.0445C39.8584 35.5831 39.9978 34.9797 39.8795 34.3436C39.3971 32.0384 38.1564 30.192 36.2916 29.0038C35.0108 28.1819 33.5162 27.7477 31.9689 27.7477C30.2619 27.7477 28.6367 28.2662 27.2687 29.2473C25.1307 30.7817 23.8545 33.288 23.8545 35.9525C23.8545 36.6212 23.9365 37.2852 24.0979 37.9256C24.9195 41.17 27.683 43.6238 30.9746 44.0315C31.2928 44.0699 31.6115 44.0894 31.9217 44.0894C32.581 44.0894 33.2226 44.0047 33.882 43.8315C34.7393 43.6236 35.556 43.2732 36.3102 42.7906C37.0228 42.3246 37.679 41.6967 38.3692 40.821L38.4145 40.7737C38.6442 40.4843 38.7511 40.1122 38.7074 39.7531C38.6682 39.4317 38.5159 39.1543 38.2787 38.9722C38.0537 38.7972 37.7856 38.7009 37.5241 38.7009C37.2692 38.7009 36.8949 38.7941 36.5562 39.2395L36.5298 39.2751C36.418 39.4256 36.3023 39.5812 36.1692 39.7355C35.7131 40.2527 35.1887 40.6787 34.612 41.0013C33.7863 41.4457 32.8941 41.6743 31.9624 41.6812C29.0355 41.6487 27.2432 39.6828 26.5428 37.8569C26.4328 37.5282 26.3542 37.2281 26.3037 36.9498C26.3029 36.9216 26.3008 36.892 26.299 36.8631L37.631 36.8611C38.4181 36.8441 39.0774 36.554 39.4875 36.0445Z" fill="white"/>
<path fill-rule="evenodd" clip-rule="evenodd" d="M56.0013 33.7334C54.8634 33.7334 53.9377 34.6653 53.9377 35.8105C53.9377 36.956 54.8634 37.8879 56.0013 37.8879C57.1369 37.8879 58.0608 36.956 58.0608 35.8105C58.0608 34.6653 57.1369 33.7334 56.0013 33.7334Z" fill="white"/>
<path fill-rule="evenodd" clip-rule="evenodd" d="M48.4839 29.0518C48.4839 28.3995 47.9557 27.8689 47.3077 27.8689L46.9765 27.864C45.9713 27.864 45.0209 28.175 44.2201 28.7644C44.0669 28.2871 43.6185 27.9515 43.1128 27.9515C42.461 27.9515 41.9474 28.4671 41.9434 29.1256L41.9472 42.7543C41.9515 43.4036 42.4751 43.9317 43.1149 43.9317C43.7584 43.9317 44.2822 43.4033 44.2822 42.7538V34.3721C44.2822 31.6566 44.514 30.5214 46.8457 30.2304C47.0391 30.2071 47.2467 30.2057 47.2994 30.2057C47.9857 30.1806 48.4839 29.6955 48.4839 29.0518Z" fill="white"/>
<path fill-rule="evenodd" clip-rule="evenodd" d="M17.7316 35.8989L23.7789 29.7774C24.0001 29.5583 24.1222 29.2639 24.1222 28.9484C24.1222 28.2973 23.5947 27.7674 22.9466 27.7674C22.6329 27.7674 22.337 27.8928 22.1139 28.1199L16.0661 34.2107L9.9943 28.1086C9.77293 27.8886 9.47954 27.7674 9.16789 27.7674C8.52297 27.7674 7.99838 28.2973 7.99838 28.9484C7.99838 29.2646 8.12358 29.5644 8.35084 29.7926L14.4025 35.894L8.35997 42.0032C8.12681 42.2277 7.99838 42.5292 7.99838 42.8517C7.99838 43.5026 8.52297 44.0325 9.16789 44.0325C9.4748 44.0325 9.76819 43.9119 9.99477 43.6917L16.0602 37.5766L22.0993 43.6632C22.331 43.9033 22.6317 44.0355 22.9466 44.0355C23.5947 44.0355 24.1222 43.5045 24.1222 42.8517C24.1222 42.5399 24.0003 42.2445 23.7794 42.0194L17.7316 35.8989Z" fill="white"/>
<path fill-rule="evenodd" clip-rule="evenodd" d="M55.9999 41.5233C52.8758 41.5233 50.3344 38.9609 50.3344 35.8113C50.3344 32.6582 52.8758 30.0928 55.9999 30.0928C59.1206 30.0928 61.6593 32.6582 61.6593 35.8113C61.6593 38.9609 59.1206 41.5233 55.9999 41.5233ZM56.0014 27.6585C51.5453 27.6585 47.92 31.3157 47.92 35.8109C47.92 40.305 51.5453 43.9612 56.0014 43.9612C60.4553 43.9612 64.0789 40.305 64.0789 35.8109C64.0789 31.3157 60.4553 27.6585 56.0014 27.6585Z" fill="white"/>
</svg>
